<mxfile host="app.diagrams.net" agent="Mozilla/5.0 (Macintosh; Intel Mac OS X 10_15_7) AppleWebKit/537.36 (KHTML, like Gecko) Chrome/137.0.0.0 Safari/537.36" version="27.1.6">
  <diagram name="페이지-1" id="0L7OF95r1eQ7n-Y-bOuV">
    <mxGraphModel dx="778" dy="931" grid="1" gridSize="10" guides="1" tooltips="1" connect="1" arrows="1" fold="1" page="1" pageScale="1" pageWidth="1169" pageHeight="827" math="0" shadow="0">
      <root>
        <mxCell id="0" />
        <mxCell id="1" parent="0" />
        <mxCell id="yVzUG5h_00YFBHCv0y6K-10" style="edgeStyle=orthogonalEdgeStyle;rounded=0;orthogonalLoop=1;jettySize=auto;html=1;" edge="1" parent="1" source="yVzUG5h_00YFBHCv0y6K-1" target="yVzUG5h_00YFBHCv0y6K-2">
          <mxGeometry relative="1" as="geometry" />
        </mxCell>
        <mxCell id="yVzUG5h_00YFBHCv0y6K-11" value="1" style="edgeLabel;html=1;align=center;verticalAlign=middle;resizable=0;points=[];" vertex="1" connectable="0" parent="yVzUG5h_00YFBHCv0y6K-10">
          <mxGeometry x="-0.8985" relative="1" as="geometry">
            <mxPoint x="1" y="10" as="offset" />
          </mxGeometry>
        </mxCell>
        <mxCell id="yVzUG5h_00YFBHCv0y6K-12" value="0..1" style="edgeLabel;html=1;align=center;verticalAlign=middle;resizable=0;points=[];" vertex="1" connectable="0" parent="yVzUG5h_00YFBHCv0y6K-10">
          <mxGeometry x="0.9052" relative="1" as="geometry">
            <mxPoint x="15" y="-5" as="offset" />
          </mxGeometry>
        </mxCell>
        <mxCell id="yVzUG5h_00YFBHCv0y6K-1" value="회원" style="rounded=0;whiteSpace=wrap;html=1;" vertex="1" parent="1">
          <mxGeometry x="440" y="120" width="120" height="60" as="geometry" />
        </mxCell>
        <mxCell id="yVzUG5h_00YFBHCv0y6K-14" style="edgeStyle=orthogonalEdgeStyle;rounded=0;orthogonalLoop=1;jettySize=auto;html=1;entryX=0;entryY=0.5;entryDx=0;entryDy=0;exitX=0.5;exitY=1;exitDx=0;exitDy=0;" edge="1" parent="1" source="yVzUG5h_00YFBHCv0y6K-2" target="yVzUG5h_00YFBHCv0y6K-6">
          <mxGeometry relative="1" as="geometry" />
        </mxCell>
        <mxCell id="yVzUG5h_00YFBHCv0y6K-15" value="1" style="edgeLabel;html=1;align=center;verticalAlign=middle;resizable=0;points=[];" vertex="1" connectable="0" parent="yVzUG5h_00YFBHCv0y6K-14">
          <mxGeometry x="-0.8954" y="2" relative="1" as="geometry">
            <mxPoint x="5" as="offset" />
          </mxGeometry>
        </mxCell>
        <mxCell id="yVzUG5h_00YFBHCv0y6K-16" value="0..*" style="edgeLabel;html=1;align=center;verticalAlign=middle;resizable=0;points=[];" vertex="1" connectable="0" parent="yVzUG5h_00YFBHCv0y6K-14">
          <mxGeometry x="0.7649" y="-1" relative="1" as="geometry">
            <mxPoint x="6" y="-13" as="offset" />
          </mxGeometry>
        </mxCell>
        <mxCell id="yVzUG5h_00YFBHCv0y6K-2" value="강사" style="rounded=0;whiteSpace=wrap;html=1;" vertex="1" parent="1">
          <mxGeometry x="240" y="240" width="120" height="60" as="geometry" />
        </mxCell>
        <mxCell id="yVzUG5h_00YFBHCv0y6K-13" style="edgeStyle=orthogonalEdgeStyle;rounded=0;orthogonalLoop=1;jettySize=auto;html=1;exitX=0.5;exitY=0;exitDx=0;exitDy=0;" edge="1" parent="1" source="yVzUG5h_00YFBHCv0y6K-3" target="yVzUG5h_00YFBHCv0y6K-1">
          <mxGeometry relative="1" as="geometry" />
        </mxCell>
        <mxCell id="yVzUG5h_00YFBHCv0y6K-22" value="1" style="edgeLabel;html=1;align=center;verticalAlign=middle;resizable=0;points=[];" vertex="1" connectable="0" parent="yVzUG5h_00YFBHCv0y6K-13">
          <mxGeometry x="0.5666" relative="1" as="geometry">
            <mxPoint x="8" as="offset" />
          </mxGeometry>
        </mxCell>
        <mxCell id="yVzUG5h_00YFBHCv0y6K-23" value="0..*" style="edgeLabel;html=1;align=center;verticalAlign=middle;resizable=0;points=[];" vertex="1" connectable="0" parent="yVzUG5h_00YFBHCv0y6K-13">
          <mxGeometry x="-0.6295" y="2" relative="1" as="geometry">
            <mxPoint x="17" as="offset" />
          </mxGeometry>
        </mxCell>
        <mxCell id="yVzUG5h_00YFBHCv0y6K-17" style="edgeStyle=orthogonalEdgeStyle;rounded=0;orthogonalLoop=1;jettySize=auto;html=1;" edge="1" parent="1" source="yVzUG5h_00YFBHCv0y6K-3" target="yVzUG5h_00YFBHCv0y6K-6">
          <mxGeometry relative="1" as="geometry" />
        </mxCell>
        <mxCell id="yVzUG5h_00YFBHCv0y6K-24" value="0..*" style="edgeLabel;html=1;align=center;verticalAlign=middle;resizable=0;points=[];" vertex="1" connectable="0" parent="yVzUG5h_00YFBHCv0y6K-17">
          <mxGeometry x="-0.7431" y="-1" relative="1" as="geometry">
            <mxPoint x="16" y="2" as="offset" />
          </mxGeometry>
        </mxCell>
        <mxCell id="yVzUG5h_00YFBHCv0y6K-25" value="1" style="edgeLabel;html=1;align=center;verticalAlign=middle;resizable=0;points=[];" vertex="1" connectable="0" parent="yVzUG5h_00YFBHCv0y6K-17">
          <mxGeometry x="0.5314" y="-1" relative="1" as="geometry">
            <mxPoint x="10" as="offset" />
          </mxGeometry>
        </mxCell>
        <mxCell id="yVzUG5h_00YFBHCv0y6K-18" style="edgeStyle=orthogonalEdgeStyle;rounded=0;orthogonalLoop=1;jettySize=auto;html=1;entryX=0;entryY=0.5;entryDx=0;entryDy=0;" edge="1" parent="1" source="yVzUG5h_00YFBHCv0y6K-3" target="yVzUG5h_00YFBHCv0y6K-5">
          <mxGeometry relative="1" as="geometry" />
        </mxCell>
        <mxCell id="yVzUG5h_00YFBHCv0y6K-33" value="1" style="edgeLabel;html=1;align=center;verticalAlign=middle;resizable=0;points=[];" vertex="1" connectable="0" parent="yVzUG5h_00YFBHCv0y6K-18">
          <mxGeometry x="-0.7028" relative="1" as="geometry">
            <mxPoint x="-5" y="-10" as="offset" />
          </mxGeometry>
        </mxCell>
        <mxCell id="yVzUG5h_00YFBHCv0y6K-34" value="1" style="edgeLabel;html=1;align=center;verticalAlign=middle;resizable=0;points=[];" vertex="1" connectable="0" parent="yVzUG5h_00YFBHCv0y6K-18">
          <mxGeometry x="0.6861" relative="1" as="geometry">
            <mxPoint y="-10" as="offset" />
          </mxGeometry>
        </mxCell>
        <mxCell id="yVzUG5h_00YFBHCv0y6K-3" value="수강" style="rounded=0;whiteSpace=wrap;html=1;" vertex="1" parent="1">
          <mxGeometry x="440" y="240" width="120" height="60" as="geometry" />
        </mxCell>
        <mxCell id="yVzUG5h_00YFBHCv0y6K-5" value="진도" style="rounded=0;whiteSpace=wrap;html=1;" vertex="1" parent="1">
          <mxGeometry x="640" y="240" width="120" height="60" as="geometry" />
        </mxCell>
        <mxCell id="yVzUG5h_00YFBHCv0y6K-19" style="edgeStyle=orthogonalEdgeStyle;rounded=0;orthogonalLoop=1;jettySize=auto;html=1;entryX=0;entryY=0.5;entryDx=0;entryDy=0;" edge="1" parent="1" source="yVzUG5h_00YFBHCv0y6K-6" target="yVzUG5h_00YFBHCv0y6K-7">
          <mxGeometry relative="1" as="geometry" />
        </mxCell>
        <mxCell id="yVzUG5h_00YFBHCv0y6K-29" value="1" style="edgeLabel;html=1;align=center;verticalAlign=middle;resizable=0;points=[];" vertex="1" connectable="0" parent="yVzUG5h_00YFBHCv0y6K-19">
          <mxGeometry x="-0.8197" y="1" relative="1" as="geometry">
            <mxPoint y="-8" as="offset" />
          </mxGeometry>
        </mxCell>
        <mxCell id="yVzUG5h_00YFBHCv0y6K-30" value="1..*" style="edgeLabel;html=1;align=center;verticalAlign=middle;resizable=0;points=[];" vertex="1" connectable="0" parent="yVzUG5h_00YFBHCv0y6K-19">
          <mxGeometry x="0.5803" y="1" relative="1" as="geometry">
            <mxPoint y="-8" as="offset" />
          </mxGeometry>
        </mxCell>
        <mxCell id="yVzUG5h_00YFBHCv0y6K-21" style="edgeStyle=orthogonalEdgeStyle;rounded=0;orthogonalLoop=1;jettySize=auto;html=1;entryX=0;entryY=0.5;entryDx=0;entryDy=0;exitX=0.5;exitY=1;exitDx=0;exitDy=0;" edge="1" parent="1" source="yVzUG5h_00YFBHCv0y6K-6" target="yVzUG5h_00YFBHCv0y6K-8">
          <mxGeometry relative="1" as="geometry" />
        </mxCell>
        <mxCell id="yVzUG5h_00YFBHCv0y6K-27" value="1" style="edgeLabel;html=1;align=center;verticalAlign=middle;resizable=0;points=[];" vertex="1" connectable="0" parent="yVzUG5h_00YFBHCv0y6K-21">
          <mxGeometry x="-0.9002" y="1" relative="1" as="geometry">
            <mxPoint x="5" as="offset" />
          </mxGeometry>
        </mxCell>
        <mxCell id="yVzUG5h_00YFBHCv0y6K-28" value="0..*" style="edgeLabel;html=1;align=center;verticalAlign=middle;resizable=0;points=[];" vertex="1" connectable="0" parent="yVzUG5h_00YFBHCv0y6K-21">
          <mxGeometry x="0.827" y="1" relative="1" as="geometry">
            <mxPoint y="-8" as="offset" />
          </mxGeometry>
        </mxCell>
        <mxCell id="yVzUG5h_00YFBHCv0y6K-6" value="강의" style="rounded=0;whiteSpace=wrap;html=1;" vertex="1" parent="1">
          <mxGeometry x="440" y="360" width="120" height="60" as="geometry" />
        </mxCell>
        <mxCell id="yVzUG5h_00YFBHCv0y6K-20" style="edgeStyle=orthogonalEdgeStyle;rounded=0;orthogonalLoop=1;jettySize=auto;html=1;entryX=0.5;entryY=0;entryDx=0;entryDy=0;" edge="1" parent="1" source="yVzUG5h_00YFBHCv0y6K-7" target="yVzUG5h_00YFBHCv0y6K-8">
          <mxGeometry relative="1" as="geometry" />
        </mxCell>
        <mxCell id="yVzUG5h_00YFBHCv0y6K-31" value="1" style="edgeLabel;html=1;align=center;verticalAlign=middle;resizable=0;points=[];" vertex="1" connectable="0" parent="yVzUG5h_00YFBHCv0y6K-20">
          <mxGeometry x="0.3981" relative="1" as="geometry">
            <mxPoint x="8" y="3" as="offset" />
          </mxGeometry>
        </mxCell>
        <mxCell id="yVzUG5h_00YFBHCv0y6K-32" value="1..*" style="edgeLabel;html=1;align=center;verticalAlign=middle;resizable=0;points=[];" vertex="1" connectable="0" parent="yVzUG5h_00YFBHCv0y6K-20">
          <mxGeometry x="-0.6981" relative="1" as="geometry">
            <mxPoint x="12" as="offset" />
          </mxGeometry>
        </mxCell>
        <mxCell id="yVzUG5h_00YFBHCv0y6K-7" value="수업" style="rounded=0;whiteSpace=wrap;html=1;" vertex="1" parent="1">
          <mxGeometry x="640" y="360" width="120" height="60" as="geometry" />
        </mxCell>
        <mxCell id="yVzUG5h_00YFBHCv0y6K-8" value="섹션" style="rounded=0;whiteSpace=wrap;html=1;" vertex="1" parent="1">
          <mxGeometry x="640" y="480" width="120" height="60" as="geometry" />
        </mxCell>
      </root>
    </mxGraphModel>
  </diagram>
</mxfile>
